:SAMPLES-PER-SECOND 30
:FULLY-SPECIFIED
:DEGREES
835
root  -27.3684 38.8995 0.179999 -34.5787 -80.64 29.6308
RightUpLeg  -14.3794 -11.7567 -10.0649
RightLeg  -3.44832 -0.566972 1.51908
RightFoot  -2.4062 -1.29533 16.2712
RightToes  4.6566e-010 0 -3.6325e-017
Spine  11.1425 -1.99289 -3.80398
Spine1  7.4274 -1.99077 -1.47098
HEad  -4.66043 -1.6683 -3.27647
LeftShoulder1  -0.03274 3.59043 -31.4018
LeftArm  3.77059 7.05736 -41.2655
LeftForeArm  28.3271 -46.8849 -9.9278
LeftHand  -0.0896103 1.02971 2.24087
RightShoulder  -0.78232 -5.66284 29.5777
RightArm  11.2704 -10.0109 45.3584
RightForeArm  14.1657 3.82966 6.2353
RightHand  -0.143391 1.32582 -2.62297
LeftUpLeg  1.10359 1.69486 -5.9212
LeftLeg  21.8685 -5.61851 -2.13722
LeftFoot  -17.2243 0.376833 5.3226
LeftToes  -4.59298e-010 2.08438e-011 -1.27151e-011
836
root  -26.1205 39.1142 0.322851 -37.6514 -82.1372 32.2633
RightUpLeg  -15.2688 -12.3122 -9.62992
RightLeg  2.83384 -1.35173 1.66041
RightFoot  -2.40554 -1.09808 13.778
RightToes  4.6566e-010 0 -3.6325e-017
Spine  11.7642 -1.62528 -1.11343
Spine1  7.41021 -0.759636 -4.17789
HEad  -3.42542 -1.22183 -4.91727
LeftShoulder1  -0.110064 3.79452 -31.7316
LeftArm  3.18407 6.91439 -40.704
LeftForeArm  25.2298 -42.5537 -8.58948
LeftHand  -0.0995197 0.987025 2.4925
RightShoulder  -0.674415 -5.39001 29.0625
RightArm  10.9244 -8.78437 46.7672
RightForeArm  15.0116 3.18709 6.22051
RightHand  -0.114298 1.86252 -1.99027
LeftUpLeg  0.0227971 2.63675 -5.91455
LeftLeg  20.7344 -5.24313 -1.83991
LeftFoot  -14.696 0.252886 5.59053
LeftToes  -4.59298e-010 2.08438e-011 -1.27151e-011
837
root  -25.0334 39.324 0.412208 -38.6174 -83.2988 32.5995
RightUpLeg  -15.0522 -14.0823 -8.87399
RightLeg  10.2187 0.32192 0.976346
RightFoot  -3.08938 -0.956206 12.9058
RightToes  4.6566e-010 0 -3.6325e-017
Spine  11.8911 -1.43531 0.620943
Spine1  7.52877 -0.0118897 -6.01647
HEad  -2.46126 -1.02536 -5.74649
LeftShoulder1  -0.0564655 3.65474 -31.3519
LeftArm  1.91804 8.26908 -40.9003
LeftForeArm  22.258 -37.843 -7.33261
LeftHand  -0.0665769 2.49825 2.21645
RightShoulder  -0.686823 -5.42254 29.1019
RightArm  12.4744 -6.37819 47.1929
RightForeArm  14.897 2.94303 6.945
RightHand  -0.134468 1.39033 -2.45206
LeftUpLeg  -0.347064 2.81313 -5.71672
LeftLeg  18.9837 -4.44622 -1.29725
LeftFoot  -12.2516 0.118097 5.58505
LeftToes  -4.59298e-010 2.08438e-011 -1.27151e-011
838
root  -24.0203 39.5031 0.426877 -37.6049 -84.1024 31.3805
RightUpLeg  -14.5574 -13.5531 -8.62299
RightLeg  18.1568 0.19307 -0.277221
RightFoot  -3.74377 -0.786042 11.421
RightToes  4.6566e-010 0 -3.6325e-017
Spine  11.5628 -1.10207 0.422803
Spine1  7.20667 0.0345355 -5.25098
HEad  -0.918579 -0.638733 -6.51831
LeftShoulder1  -0.0533049 3.64458 -31.7331
LeftArm  1.73456 10.0246 -40.5558
LeftForeArm  17.8309 -32.566 -6.16894
LeftHand  -0.0720109 3.19696 2.97239
RightShoulder  -0.677142 -5.41667 28.7084
RightArm  14.1133 -4.07442 47.191
RightForeArm  15.2119 3.88816 7.5889
RightHand  -0.16084 0.952003 -3.05938
LeftUpLeg  -0.98266 3.8939 -5.10514
LeftLeg  17.2456 -4.99252 -1.41622
LeftFoot  -9.99316 -0.00689182 5.66217
LeftToes  -4.59298e-010 2.08438e-011 -1.27151e-011
839
root  -23.0397 39.6002 0.39444 -35.6708 -84.2303 29.4602
RightUpLeg  -13.4292 -10.9227 -9.52932
RightLeg  25.8842 -1.6324 -1.06495
RightFoot  -4.51674 -0.648682 10.3299
RightToes  4.6566e-010 0 -3.6325e-017
Spine  10.9132 -0.980082 -0.188299
Spine1  6.89055 -0.144185 -4.69706
HEad  0.155258 -0.738663 -5.60576
LeftShoulder1  -0.0873276 3.73503 -31.6374
LeftArm  3.67263 11.352 -39.9196
LeftForeArm  13.0532 -26.9951 -5.08778
LeftHand  -0.0533122 3.90574 2.68447
RightShoulder  -0.720944 -5.53862 28.7591
RightArm  14.7855 -2.17025 46.9989
RightForeArm  15.7481 5.89624 7.71684
RightHand  -0.107895 1.3875 -1.97715
LeftUpLeg  -2.00484 4.45254 -4.79461
LeftLeg  15.9215 -5.671 -1.74575
LeftFoot  -7.80065 -0.129503 5.7207
LeftToes  -4.59298e-010 2.08438e-011 -1.27151e-011
840
root  -22.1311 39.6412 0.32445 -35.9293 -84.3801 29.3465
RightUpLeg  -11.1652 -8.40196 -10.2171
RightLeg  32.6682 -1.70123 -1.40661
RightFoot  -5.38105 -0.508809 9.04975
RightToes  4.6566e-010 0 -3.6325e-017
Spine  10.1455 -0.869055 -0.737192
Spine1  7.17748 -0.218377 -4.61875
HEad  1.04291 -0.639465 -4.75429
LeftShoulder1  -0.0862432 3.73531 -31.1318
LeftArm  5.62786 12.3012 -39.2097
LeftForeArm  10.2871 -21.1298 -4.70922
LeftHand  -0.0593646 3.55592 2.78553
RightShoulder  -0.773316 -5.66675 29.1157
RightArm  14.6377 -0.657357 47.0065
RightForeArm  13.98 8.5777 7.35382
RightHand  -0.105939 1.37615 -1.88339
LeftUpLeg  -2.5626 4.86566 -4.54078
LeftLeg  14.8041 -5.98502 -2.04342
LeftFoot  -6.06634 -0.213107 5.42199
LeftToes  -4.59298e-010 2.08438e-011 -1.27151e-011
841
root  -21.1709 39.5694 0.254842 -37.4704 -83.9818 30.7471
RightUpLeg  -8.78109 -6.96114 -11.0786
RightLeg  38.6356 -1.00471 -1.11678
RightFoot  -6.49457 -0.407739 8.58358
RightToes  4.6566e-010 0 -3.6325e-017
Spine  9.59437 -0.776677 -1.48223
Spine1  7.18513 -0.347665 -4.33914
HEad  1.63837 -0.789963 -4.03459
LeftShoulder1  -0.114359 3.80985 -31.2573
LeftArm  3.27107 13.0319 -37.5824
LeftForeArm  14.1281 -16.1903 -6.51508
LeftHand  -0.0440763 4.32648 1.42404
RightShoulder  -0.759621 -5.64884 28.77
RightArm  15.3447 0.344687 47.5198
RightForeArm  9.21973 11.7116 6.79973
RightHand  -0.196492 2.55452 -3.08138
LeftUpLeg  -3.89755 4.76315 -4.88532
LeftLeg  14.5904 -5.99989 -2.29827
LeftFoot  -4.81566 -0.260006 5.05806
LeftToes  -4.59298e-010 2.08438e-011 -1.27151e-011
842
root  -20.2156 39.4422 0.175908 -44.9042 -83.9803 37.8953
RightUpLeg  -5.84033 -5.87014 -12.0094
RightLeg  43.0465 0.275044 -0.0160761
RightFoot  -7.21406 -0.3631 8.70216
RightToes  4.6566e-010 0 -3.6325e-017
Spine  9.12302 -0.34617 -1.86768
Spine1  7.40595 0.0753908 -4.5996
HEad  1.79887 -0.736923 -3.1947
LeftShoulder1  -0.0836846 3.72752 -31.3217
LeftArm  -0.484225 13.8193 -36.0129
LeftForeArm  20.9281 -12.1817 -7.78449
LeftHand  -0.0381668 6.67875 -0.282015
RightShoulder  -0.74069 -5.62263 28.3109
RightArm  15.6582 1.39764 48.4056
RightForeArm  7.02886 14.7828 5.82208
RightHand  -0.141879 2.43344 -2.24021
LeftUpLeg  -5.1354 4.72127 -5.42597
LeftLeg  14.4708 -5.48785 -2.50876
LeftFoot  -3.61089 -0.310187 4.91546
LeftToes  -4.59298e-010 2.08438e-011 -1.27151e-011
843
root  -19.1938 39.2857 0.0777824 -51.1902 -83.9303 43.7882
RightUpLeg  -2.14132 -4.92881 -12.4536
RightLeg  45.243 1.80867 1.64397
RightFoot  -7.63997 -0.348846 9.16494
RightToes  4.6566e-010 0 -3.6325e-017
Spine  9.03827 -0.102493 -1.79233
Spine1  7.51542 0.455079 -5.35705
HEad  1.83646 -0.64563 -2.90825
LeftShoulder1  -0.122767 3.82972 -31.3378
LeftArm  -3.0871 15.0351 -34.6865
LeftForeArm  25.0846 -9.79957 -7.96443
LeftHand  -0.0307992 5.07436 0.271983
RightShoulder  -0.696949 -5.49823 28.2625
RightArm  16.7601 3.18303 49.3042
RightForeArm  2.54592 16.6974 5.54688
RightHand  -0.30745 3.72896 -4.20071
LeftUpLeg  -6.54873 4.26716 -5.97286
LeftLeg  14.6681 -4.72062 -2.28861
LeftFoot  -2.47214 -0.312505 4.21946
LeftToes  -4.59298e-010 2.08438e-011 -1.27151e-011
844
root  -18.1663 39.1266 -0.00366394 -57.4627 -84.2247 49.6947
RightUpLeg  1.837 -4.19995 -12.3874
RightLeg  45.4248 3.69925 3.70032
RightFoot  -7.26499 -0.403015 9.84122
RightToes  4.6566e-010 0 -3.6325e-017
Spine  9.07358 0.272092 -0.767014
Spine1  7.61753 1.11813 -6.27967
HEad  1.69412 -0.717346 -3.28142
LeftShoulder1  -0.21719 4.0716 -32.104
LeftArm  -3.83177 16.0338 -33.1854
LeftForeArm  25.7719 -8.87974 -7.8686
LeftHand  -0.0418943 6.32374 -0.848765
RightShoulder  -0.659839 -5.41891 27.7599
RightArm  17.8191 4.6703 50.215
RightForeArm  1.53987 19.0855 5.06586
RightHand  -0.306919 4.0162 -4.05641
LeftUpLeg  -8.04056 4.18432 -6.11242
LeftLeg  14.9886 -4.04874 -2.10979
LeftFoot  -1.76036 -0.24338 3.03289
LeftToes  -4.59298e-010 2.08438e-011 -1.27151e-011
